<?xml version="1.0" encoding="utf-8"?>
<!-- Generator: Adobe Illustrator 24.1.0, SVG Export Plug-In . SVG Version: 6.00 Build 0)  -->
<svg version="1.1" id="Layer_1" xmlns="http://www.w3.org/2000/svg" xmlns:xlink="http://www.w3.org/1999/xlink" x="0px" y="0px"
	 viewBox="0 0 511 511" style="enable-background:new 0 0 511 511;" xml:space="preserve">
<style type="text/css">
	.st0{fill:#B74E4E;}
</style>
<path class="st0" d="M403.7,356.3l45.4-45.4h12.1v-33.3h-16.9c-13.8-2.8-25.4-9.4-35.1-19.9c-27.6-29.8-32.9-83-33.5-112.7
	c1.3-7.3,2-14.9,2-22.7c0-33.6-12.1-62.7-35.8-86.5C318.2,12,289,0,255.4,0c-33.6,0-62.7,12.1-86.5,35.8
	C145.1,59.5,133,88.7,133,122.3c0,7.7,0.6,15.1,1.9,22.3c-0.2,8.6-0.7,19.1-2.1,30.6c-3.1,25.5-11,60.5-31.4,82.5
	c-9.7,10.5-21.3,17.1-35.2,19.9H49.5v1.6v30v1.6h9.7l47.1,47.1v28.3l-49.9,49.9h-6.9v33.3h188.9V511h33.3v-41.6h188.9v-33.3h-7.1
	l-49.7-49.7V356.3z M359.5,353.5h-87.8v-42.6h130.5L359.5,353.5z M386.7,277.6H271.6v-34c26.8-3.3,50.4-14.9,70.3-34.8
	c3.3-3.3,6.4-6.7,9.2-10.2C356.5,226.3,366.9,256,386.7,277.6z M255.3,212.6c-49.8,0-90.3-40.5-90.3-90.3S205.5,32,255.3,32
	s90.3,40.5,90.3,90.3S305.1,212.6,255.3,212.6z M159.5,198.4c2.9,3.6,6,7.1,9.4,10.4c19.7,19.7,43,31.3,69.5,34.7v34.1H123.9
	C143.7,255.9,154.1,226.1,159.5,198.4z M238.4,310.9v42.6h-89.5l-42.6-42.6H238.4z M103.4,436.2l49.4-49.4h85.6v49.4H103.4z
	 M271.6,436.2v-49.4H357l49.4,49.4H271.6z"/>
</svg>
