<?xml version="1.0" encoding="utf-8"?>
<!-- Generator: Adobe Illustrator 24.1.0, SVG Export Plug-In . SVG Version: 6.00 Build 0)  -->
<svg version="1.1" id="Layer_1" xmlns="http://www.w3.org/2000/svg" xmlns:xlink="http://www.w3.org/1999/xlink" x="0px" y="0px"
	 viewBox="0 0 511 511" style="enable-background:new 0 0 511 511;" xml:space="preserve">
<style type="text/css">
	.st0{fill:#B74E4E;}
</style>
<path class="st0" d="M506.8,252.4l-232-232l0.6-0.6L255.6,0L255,0.6L254.4,0l-19.8,19.8l0.6,0.6l-232,232L23,272.2L77.1,218v279.6
	h0.1v13.5c38.5,0,73-17.6,102-52.2c22.1-26.4,41.2-62.8,56.7-108.3c2-5.9,3.9-11.7,5.7-17.5l-0.1,178h27.9l0.1-178
	c1.8,5.8,3.7,11.7,5.7,17.5c15.5,45.5,34.6,81.9,56.7,108.3c29,34.6,63.6,52.2,102.2,52.2v-13.4h0V219.1l53,53L506.8,252.4z
	 M114.2,181L255,40.1L395.8,181H114.2z M209.5,342c-14.4,42.1-31.8,75.5-51.7,99.2c-16.3,19.4-33.7,32-52.8,38V208.9h134.9
	C236.5,234.6,227.8,288.6,209.5,342z M353.2,441.2c-19.9-23.7-37.3-57.1-51.7-99.2c-18.2-53.4-27-107.5-30.4-133.1h134.9v270.3
	C387,473.2,369.5,460.6,353.2,441.2z"/>
</svg>
