<?xml version="1.0" encoding="utf-8"?>
<!-- Generator: Adobe Illustrator 24.1.0, SVG Export Plug-In . SVG Version: 6.00 Build 0)  -->
<svg version="1.1" id="Layer_1" xmlns="http://www.w3.org/2000/svg" xmlns:xlink="http://www.w3.org/1999/xlink" x="0px" y="0px"
	 viewBox="0 0 591 591" style="enable-background:new 0 0 591 591;" xml:space="preserve">
<style type="text/css">
	.st0{fill:#B74E4E;}
</style>
<path class="st0" d="M460.7,395.7h-15.3H413H311.2V291c17,10.4,40.9,23.7,68.8,35c32.4,13.1,63.4,20.8,92.2,22.9
	c5.2,0.4,10.4,0.6,15.4,0.6c31,0,59.3-6.9,84.1-20.6l-16.9-30.7c-90.9,50-215.9-29.8-243.7-49v-75.3H413v48.8h32.3v-48.8h7.8v-32.3
	h-7.8v-11.6H413v11.6H311.2V80.1c11.7,6.8,26.5,14.6,43.3,21.4c28.2,11.4,55,17.2,79.5,17.2c23.2,0,44.4-5.1,63-15.4l-16.9-30.7
	C418.7,106.5,333.6,54,311.2,38.8V0h-32.3v38.8c-9.7,6.6-31,20.1-57.1,30.6c-31.1,12.5-75.7,23.2-111.8,3.3L93,103.3
	c20.2,11.1,41.7,15.5,63,15.5c47.9,0,94.6-22.1,122.8-38.6v61.3H177v-11.6h-32.3v11.6h-7.8v32.3h7.8v48.8H177v-48.8h101.8v75.3
	c-27.8,19.2-152.9,99-243.7,49l-16.9,30.7c24.9,13.7,53.1,20.6,84.1,20.6c5.1,0,10.2-0.2,15.4-0.6c28.8-2,59.8-9.7,92.2-22.9
	c27.9-11.3,51.8-24.6,68.8-35v104.8H177h-32.3h-15.3v-14.6H97v47h32.3h15.3v92.3H177v-92.3h101.8V591h32.3V428.1H413v92.3h32.3
	v-92.3h15.3H493v-47h-32.3V395.7z"/>
</svg>
