<?xml version="1.0" encoding="utf-8"?>
<!-- Generator: Adobe Illustrator 24.1.0, SVG Export Plug-In . SVG Version: 6.00 Build 0)  -->
<svg version="1.1" id="Layer_1" xmlns="http://www.w3.org/2000/svg" xmlns:xlink="http://www.w3.org/1999/xlink" x="0px" y="0px"
	 viewBox="0 0 511 511" style="enable-background:new 0 0 511 511;" xml:space="preserve">
<style type="text/css">
	.st0{fill:#B74E4E;}
	.st1{fill:none;stroke:#B74E4E;stroke-width:30;stroke-miterlimit:10;}
</style>
<rect x="72.1" class="st0" width="32.3" height="511"/>
<rect x="239.3" class="st0" width="32.3" height="511"/>
<rect x="406.7" class="st0" width="32.3" height="511"/>
<rect x="239.3" y="-165.4" transform="matrix(-1.836970e-16 1 -1 -1.836970e-16 271.6724 -239.3276)" class="st0" width="32.3" height="363.2"/>
<rect x="239.3" y="313.2" transform="matrix(-1.836970e-16 1 -1 -1.836970e-16 750.3276 239.3276)" class="st0" width="32.3" height="363.2"/>
<path class="st1" d="M255.5,16.2c0,231.4,167.4,239.3,167.4,239.3"/>
<path class="st1" d="M255.5,494.8c0-231.4,167.4-239.3,167.4-239.3"/>
<path class="st1" d="M255.5,16.2c0,231.4-167.4,239.3-167.4,239.3"/>
<path class="st1" d="M255.5,494.8c0-231.4-167.4-239.3-167.4-239.3"/>
</svg>
